<svg width="165" height="119" viewBox="0 0 165 119" fill="none" xmlns="http://www.w3.org/2000/svg">
<rect x="1" y="1" width="122.559" height="103.232" rx="2.82828" fill="white" stroke="url(#paint0_linear_5480_1747)" stroke-width="0.669574" stroke-linecap="round" stroke-linejoin="bevel"/>
<path d="M1 4.77104C1 2.68835 2.68835 1 4.77104 1H119.788C121.87 1 123.559 2.68835 123.559 4.77104V7.12794H1V4.77104Z" fill="url(#paint1_linear_5480_1747)"/>
<path d="M117.895 15.3957C117.895 14.1014 116.845 13.0522 115.551 13.0522H13.1062C11.8119 13.0522 10.7627 14.1014 10.7627 15.3957C10.7627 16.69 11.8119 17.7392 13.1062 17.7392H115.551C116.845 17.7392 117.895 16.69 117.895 15.3957Z" fill="url(#paint2_linear_5480_1747)"/>
<path d="M94.8691 25.4527C94.8691 24.151 93.8139 23.0958 92.5122 23.0958H9.07796C7.77628 23.0958 6.72105 24.151 6.72105 25.4527C6.72105 26.7544 7.77628 27.8096 9.07796 27.8096H92.5122C93.8139 27.8096 94.8691 26.7544 94.8691 25.4527Z" fill="url(#paint3_linear_5480_1747)"/>
<path d="M113.183 35.5097C113.183 34.2154 112.134 33.1662 110.84 33.1662H9.06435C7.77006 33.1662 6.72083 34.2154 6.72083 35.5097C6.72083 36.804 7.77006 37.8532 9.06434 37.8532H110.84C112.134 37.8532 113.183 36.804 113.183 35.5097Z" fill="url(#paint4_linear_5480_1747)"/>
<path d="M70.3572 45.5667C70.3572 44.265 69.302 43.2098 68.0003 43.2098H9.07776C7.77608 43.2098 6.72086 44.265 6.72086 45.5667C6.72086 46.8684 7.77608 47.9236 9.07776 47.9236H68.0003C69.302 47.9236 70.3572 46.8684 70.3572 45.5667Z" fill="url(#paint5_linear_5480_1747)"/>
<path d="M7.14345 15.2176L8.57626 14.5824V14.9108L7.39609 15.4125L8.57626 15.9142V16.257L7.14345 15.6182V15.2176Z" fill="#4D3DD0"/>
<path d="M104.297 55.6371C104.297 54.3354 103.241 53.2802 101.94 53.2802H9.07784C7.77616 53.2802 6.72094 54.3354 6.72094 55.6371C6.72094 56.9388 7.77616 57.994 9.07784 57.994H101.94C103.241 57.994 104.297 56.9388 104.297 55.6371Z" fill="url(#paint6_linear_5480_1747)"/>
<path d="M80.7275 65.6815C80.7275 64.3799 79.6723 63.3246 78.3706 63.3246H9.07776C7.77608 63.3246 6.72086 64.3799 6.72086 65.6815C6.72086 66.9832 7.77608 68.0384 9.07776 68.0384H78.3706C79.6723 68.0384 80.7275 66.9832 80.7275 65.6815Z" fill="url(#paint7_linear_5480_1747)"/>
<path d="M84.5766 65.9496L82.9572 66.6675V66.2963L84.2911 65.7293L82.9572 65.1623V64.7748L84.5766 65.4968V65.9496Z" fill="#4D3DD0"/>
<g clip-path="url(#clip0_5480_1747)">
<path d="M95.1399 75.6707C95.1399 74.3691 94.0847 73.3138 92.783 73.3138H13.1197C11.8181 73.3138 10.7628 74.3691 10.7628 75.6707C10.7628 76.9724 11.8181 78.0276 13.1197 78.0276H92.783C94.0847 78.0276 95.1399 76.9724 95.1399 75.6707Z" fill="url(#paint8_linear_5480_1747)"/>
<path d="M7.35415 75.4792L8.78696 74.844V75.1724L7.60678 75.674L8.78696 76.1757V76.5186L7.35415 75.8798V75.4792Z" fill="#4D3DD0"/>
</g>
<rect x="5.71387" y="2.41388" width="3.29966" height="3.29966" rx="1.64983" fill="white"/>
<rect x="10.8992" y="2.41388" width="3.29966" height="3.29966" rx="1.64983" fill="white"/>
<rect x="16.0842" y="2.41388" width="3.29966" height="3.29966" rx="1.64983" fill="white"/>
<rect x="116.017" y="62.7507" width="14.1414" height="50.4377" fill="white"/>
<path d="M121.808 39.3084C122.434 38.2252 123.997 38.2251 124.623 39.3084L164.497 108.373C165.122 109.456 164.34 110.81 163.09 110.81H83.3416C82.0908 110.81 81.3084 109.456 81.9334 108.373L121.808 39.3084ZM123.035 93.7595C121.918 93.7596 121.013 94.6651 121.013 95.782C121.013 96.8988 121.918 97.8045 123.035 97.8045C124.152 97.8045 125.057 96.8988 125.057 95.782C125.057 94.6651 124.152 93.7595 123.035 93.7595ZM121.446 64.9461C121.207 64.9461 121.013 65.1395 121.013 65.3787V88.2742C121.013 88.5134 121.207 88.7068 121.446 88.7068H124.624C124.863 88.7068 125.057 88.5134 125.057 88.2742V65.3787C125.057 65.1395 124.863 64.9461 124.624 64.9461H121.446Z" fill="url(#paint9_linear_5480_1747)"/>
<defs>
<linearGradient id="paint0_linear_5480_1747" x1="1" y1="52.6161" x2="123.559" y2="52.6161" gradientUnits="userSpaceOnUse">
<stop stop-color="#EEF0FF"/>
<stop offset="0.533654" stop-color="#EDEEF2"/>
<stop offset="1" stop-color="#D6DCFF"/>
</linearGradient>
<linearGradient id="paint1_linear_5480_1747" x1="1" y1="4.06397" x2="123.559" y2="4.06397" gradientUnits="userSpaceOnUse">
<stop stop-color="#EEF0FF"/>
<stop offset="0.533654" stop-color="#EDEEF2"/>
<stop offset="1" stop-color="#D6DCFF"/>
</linearGradient>
<linearGradient id="paint2_linear_5480_1747" x1="117.895" y1="15.3957" x2="10.7627" y2="15.3957" gradientUnits="userSpaceOnUse">
<stop stop-color="#EEF0FF"/>
<stop offset="0.533654" stop-color="#EDEEF2"/>
<stop offset="1" stop-color="#D6DCFF"/>
</linearGradient>
<linearGradient id="paint3_linear_5480_1747" x1="94.8691" y1="25.4527" x2="6.72105" y2="25.4527" gradientUnits="userSpaceOnUse">
<stop stop-color="#EEF0FF"/>
<stop offset="0.533654" stop-color="#EDEEF2"/>
<stop offset="1" stop-color="#D6DCFF"/>
</linearGradient>
<linearGradient id="paint4_linear_5480_1747" x1="113.183" y1="35.5097" x2="6.72083" y2="35.5097" gradientUnits="userSpaceOnUse">
<stop stop-color="#EEF0FF"/>
<stop offset="0.533654" stop-color="#EDEEF2"/>
<stop offset="1" stop-color="#D6DCFF"/>
</linearGradient>
<linearGradient id="paint5_linear_5480_1747" x1="70.3572" y1="45.5667" x2="6.72086" y2="45.5667" gradientUnits="userSpaceOnUse">
<stop stop-color="#EEF0FF"/>
<stop offset="0.533654" stop-color="#EDEEF2"/>
<stop offset="1" stop-color="#D6DCFF"/>
</linearGradient>
<linearGradient id="paint6_linear_5480_1747" x1="104.297" y1="55.6371" x2="6.72094" y2="55.6371" gradientUnits="userSpaceOnUse">
<stop stop-color="#EEF0FF"/>
<stop offset="0.533654" stop-color="#EDEEF2"/>
<stop offset="1" stop-color="#D6DCFF"/>
</linearGradient>
<linearGradient id="paint7_linear_5480_1747" x1="80.7275" y1="65.6815" x2="6.72086" y2="65.6815" gradientUnits="userSpaceOnUse">
<stop stop-color="#EEF0FF"/>
<stop offset="0.533654" stop-color="#EDEEF2"/>
<stop offset="1" stop-color="#D6DCFF"/>
</linearGradient>
<linearGradient id="paint8_linear_5480_1747" x1="95.1399" y1="75.6707" x2="10.7628" y2="75.6707" gradientUnits="userSpaceOnUse">
<stop stop-color="#EEF0FF"/>
<stop offset="0.533654" stop-color="#EDEEF2"/>
<stop offset="1" stop-color="#D6DCFF"/>
</linearGradient>
<linearGradient id="paint9_linear_5480_1747" x1="73.9223" y1="86.1639" x2="172.508" y2="86.1639" gradientUnits="userSpaceOnUse">
<stop stop-color="#D6DCFF"/>
<stop offset="0.533654" stop-color="#EDEEF2"/>
<stop offset="1" stop-color="#9AA9FF"/>
</linearGradient>
<clipPath id="clip0_5480_1747">
<rect width="97.7578" height="10.0436" fill="white" transform="translate(6.72095 73.3138)"/>
</clipPath>
</defs>
</svg>
